<?xml version="1.0" standalone="no"?>
<!DOCTYPE svg PUBLIC "-//W3C//DTD SVG 20010904//EN"
 "http://www.w3.org/TR/2001/REC-SVG-20010904/DTD/svg10.dtd">
<svg version="1.0" xmlns="http://www.w3.org/2000/svg"
 width="500.000000pt" height="500.000000pt" viewBox="0 0 500.000000 500.000000"
 preserveAspectRatio="xMidYMid meet">
<metadata>
Created by potrace 1.16, written by Peter Selinger 2001-2019
</metadata>
<g transform="translate(0.000000,500.000000) scale(0.100000,-0.100000)"
fill="#000000" stroke="none">
<path d="M1057 4282 c-17 -7 -36 -11 -43 -8 -17 7 -86 -19 -77 -29 5 -4 2 -5
-4 -1 -13 7 -74 -21 -81 -37 -2 -4 -8 -5 -12 -2 -5 3 -18 -3 -30 -15 -11 -11
-23 -21 -27 -21 -21 -4 -32 -12 -28 -19 3 -5 -4 -12 -16 -15 -11 -4 -42 -27
-67 -52 -26 -26 -40 -43 -32 -39 8 4 5 -1 -7 -12 -13 -11 -23 -25 -23 -31 0
-5 -6 -14 -12 -18 -7 -4 -22 -26 -33 -48 -11 -22 -23 -42 -26 -45 -3 -3 -14
-27 -23 -55 -10 -27 -24 -62 -32 -77 -8 -15 -14 -39 -14 -55 1 -15 1 -73 0
-128 -1 -102 22 -247 43 -274 9 -12 9 -13 0 -7 -21 12 -15 -8 6 -24 11 -7 18
-17 15 -22 -3 -4 0 -8 6 -8 7 0 10 -7 6 -15 -3 -8 -1 -15 4 -15 6 0 10 -7 10
-15 0 -8 4 -15 10 -15 5 0 6 -7 3 -17 -4 -11 -3 -14 5 -9 7 4 12 2 12 -4 0 -6
11 -22 25 -36 14 -14 23 -29 20 -35 -3 -5 1 -6 10 -3 11 5 14 2 9 -10 -4 -9
-3 -16 2 -15 22 4 39 -2 28 -9 -9 -5 -8 -11 2 -20 8 -7 14 -10 14 -7 0 2 10
-4 23 -15 12 -10 25 -18 29 -17 3 1 17 -7 30 -18 22 -19 47 -35 95 -60 13 -7
20 -14 17 -17 -3 -4 1 -6 8 -5 31 1 49 -4 44 -12 -4 -5 4 -7 16 -3 16 4 19 2
13 -8 -5 -8 -4 -11 1 -7 5 3 41 -1 79 -9 99 -22 247 -14 353 18 45 14 82 21
82 16 0 -5 5 -6 11 -2 8 4 9 -1 4 -16 -4 -12 -3 -20 2 -17 5 3 19 -13 32 -36
16 -27 19 -37 8 -29 -13 11 -15 10 -10 -9 4 -15 3 -20 -5 -15 -7 4 -12 2 -12
-4 0 -6 -10 -10 -22 -9 -13 1 -30 0 -38 -3 -21 -8 -141 -31 -165 -32 -11 -1
-22 -4 -25 -7 -5 -5 -193 -44 -215 -44 -21 0 -36 -34 -30 -72 4 -21 6 -53 6
-71 -1 -23 3 -31 10 -26 9 5 10 -1 5 -20 -3 -14 -2 -26 3 -26 9 0 20 -53 26
-132 1 -26 6 -51 9 -57 4 -5 2 -12 -3 -16 -7 -3 -8 -74 -5 -188 12 -403 12
-431 -5 -439 -14 -6 -13 -7 2 -7 34 -2 16 -17 -22 -19 -35 -2 -39 0 -46 25 -5
15 -7 32 -6 36 1 5 -3 6 -8 2 -6 -3 -27 2 -48 11 -21 9 -42 18 -48 19 -38 6
-103 30 -99 37 3 4 -3 5 -12 1 -11 -4 -15 -3 -11 4 5 7 -1 9 -15 5 -16 -4 -19
-2 -13 8 5 8 4 11 -2 7 -6 -4 -34 1 -62 10 -35 11 -48 19 -39 25 10 6 10 8 -2
8 -8 0 -26 3 -40 5 -20 4 -21 4 -5 -3 18 -8 17 -9 -7 -15 l-26 -7 3 -316 c2
-194 7 -320 13 -326 7 -7 23 -6 49 3 21 7 45 13 53 14 28 3 65 17 82 32 10 9
24 13 33 9 9 -3 14 -2 10 3 -5 10 50 27 74 22 8 -1 10 2 6 9 -5 9 -1 10 15 5
17 -5 21 -4 15 6 -6 9 -3 11 8 6 10 -3 17 -2 17 4 0 6 9 8 23 3 12 -3 19 -3
15 1 -3 3 2 15 13 26 10 10 19 26 19 34 0 9 9 15 24 15 55 0 54 5 55 -227 1
-153 -1 -213 -9 -208 -6 4 -5 -9 4 -29 8 -20 12 -36 8 -36 -4 0 1 -5 11 -11 9
-5 17 -15 17 -20 0 -6 -5 -7 -12 -3 -7 4 -8 3 -4 -4 4 -7 14 -12 22 -12 8 0
17 -6 20 -14 3 -8 19 -20 35 -26 16 -7 26 -16 23 -21 -3 -5 449 -9 1066 -9
694 0 1069 4 1065 10 -3 6 4 14 17 19 13 5 31 18 42 30 10 11 21 19 25 17 3
-2 7 6 7 17 1 12 7 40 13 62 6 22 11 107 11 188 l0 148 93 -3 92 -3 3 -45 c4
-47 24 -80 51 -80 9 0 36 -10 61 -22 25 -12 51 -20 57 -19 7 1 13 -4 13 -10 0
-7 3 -10 6 -6 6 5 67 -13 109 -32 11 -6 61 -22 110 -37 50 -15 104 -34 120
-42 17 -9 39 -16 49 -17 11 -1 22 -7 24 -13 2 -6 10 -8 18 -5 8 3 14 0 14 -7
0 -6 5 -8 10 -5 6 3 10 2 10 -3 0 -6 10 -8 22 -4 16 4 19 2 13 -8 -6 -10 -4
-12 9 -7 9 4 24 3 34 -3 9 -5 30 -11 45 -15 15 -3 25 -10 22 -15 -3 -6 1 -7
10 -4 8 4 26 -1 38 -9 21 -14 50 -10 48 7 -1 3 -1 9 0 14 5 43 2 1279 -4 1275
-4 -2 -5 12 -2 32 4 37 4 37 -28 31 -18 -4 -40 -7 -50 -7 -9 0 -15 -4 -12 -10
4 -5 3 -9 -2 -10 -38 -4 -59 -10 -138 -42 -97 -38 -172 -62 -192 -60 -7 0 -13
-2 -13 -6 0 -11 -59 -33 -70 -26 -5 3 -10 2 -10 -2 0 -12 -98 -45 -110 -38 -6
3 -10 2 -10 -2 0 -8 -62 -35 -75 -33 -3 0 -19 -7 -35 -15 -17 -9 -30 -13 -30
-10 0 4 -10 -1 -22 -9 -12 -9 -27 -16 -33 -16 -5 0 -3 5 5 10 10 6 11 10 3 10
-7 0 -25 -12 -40 -26 -25 -22 -28 -31 -25 -75 l4 -49 -96 0 -96 0 0 263 c0
144 -3 271 -6 282 -5 20 -12 20 -915 17 -607 -1 -909 1 -909 8 0 5 -7 10 -16
10 -8 0 -12 4 -9 10 3 6 1 10 -4 10 -22 0 -10 28 14 32 13 3 22 1 19 -3 -3 -5
0 -9 5 -9 6 0 11 4 11 10 0 9 59 27 95 28 11 0 42 5 69 11 26 6 53 8 59 4 6
-3 7 -1 3 5 -4 6 1 11 11 11 10 -1 29 3 42 7 19 6 22 4 15 -7 -5 -9 2 -8 20 5
16 10 46 19 67 20 21 0 39 4 39 9 0 4 12 7 28 7 15 0 43 5 62 10 19 6 60 11
90 11 41 1 50 4 35 10 -14 7 -7 8 23 4 25 -3 41 -2 38 4 -3 5 9 11 27 15 94
17 114 20 139 19 15 0 25 3 22 8 -5 8 0 9 81 10 38 1 44 3 25 8 -21 6 -17 9
25 15 28 4 67 8 87 9 24 1 33 4 25 9 -7 5 6 7 30 5 23 -2 40 0 37 5 -5 8 31
13 69 10 10 -1 16 2 12 7 -3 6 16 13 42 16 27 4 84 15 128 25 44 10 125 26
180 35 55 10 107 22 115 26 10 5 15 23 15 57 0 28 -3 48 -6 46 -4 -2 -10 15
-13 39 -9 62 -13 80 -19 97 -3 8 -9 33 -12 54 -13 95 -23 109 -65 100 -20 -5
-22 -3 -10 5 12 9 8 10 -15 5 -16 -4 -35 -11 -42 -16 -7 -6 -28 -10 -48 -11
-19 -1 -35 -4 -35 -8 0 -3 -24 -9 -52 -13 -29 -4 -60 -9 -68 -10 -9 -1 -20 -5
-26 -9 -15 -9 -28 73 -14 87 5 5 10 20 10 32 0 13 5 26 10 29 6 4 8 11 5 16
-5 8 23 13 63 12 6 -1 12 4 12 9 0 5 9 6 20 3 11 -3 20 -2 20 4 0 8 30 23 50
26 7 0 56 36 94 67 18 15 37 24 41 20 5 -4 5 -2 1 5 -3 6 2 18 11 25 10 7 24
22 31 33 7 11 22 35 33 53 12 17 25 32 31 32 5 0 7 4 4 9 -8 13 19 73 29 64 4
-5 5 -3 1 4 -3 6 -1 33 5 60 24 99 6 230 -47 349 -9 21 -16 44 -15 49 2 6 -1
7 -5 3 -4 -5 -19 9 -32 30 -22 32 -62 73 -117 120 -8 7 -15 9 -15 5 0 -4 -6
-1 -13 8 -7 9 -15 17 -20 17 -4 1 -21 9 -38 18 -17 9 -42 18 -55 20 -13 2 -36
9 -51 16 -33 13 -218 11 -244 -3 -10 -5 -25 -6 -33 -3 -10 4 -16 1 -16 -7 0
-7 -3 -9 -7 -6 -3 4 -12 2 -20 -4 -7 -6 -13 -8 -13 -5 0 4 -10 -2 -22 -14 -12
-11 -29 -20 -39 -20 -9 0 -20 -7 -23 -16 -4 -9 -9 -14 -12 -11 -3 2 -16 -5
-29 -17 -13 -11 -29 -26 -37 -33 -61 -54 -152 -210 -140 -241 3 -9 1 -13 -4
-9 -12 7 -15 -15 -15 -141 0 -70 4 -109 13 -120 10 -12 10 -14 1 -8 -7 4 -13
2 -13 -3 0 -6 4 -11 9 -11 5 0 12 -7 15 -16 4 -10 2 -13 -7 -8 -6 4 -5 -1 4
-12 9 -10 22 -36 30 -56 7 -21 17 -38 22 -38 5 0 7 -6 4 -13 -5 -13 24 -56 40
-60 4 -1 7 -7 5 -14 -2 -7 3 -12 10 -11 6 2 12 -2 13 -9 0 -6 4 -15 9 -20 5
-5 6 -3 2 5 -4 6 -3 12 3 12 15 0 11 -81 -5 -87 -7 -2 -11 -10 -8 -17 2 -6 -7
-56 -21 -111 -14 -55 -25 -108 -25 -118 0 -10 -4 -16 -8 -13 -5 3 -6 -8 -4
-25 3 -18 0 -29 -7 -29 -7 0 -9 -5 -5 -12 5 -8 -2 -9 -27 -5 -26 5 -30 4 -19
-4 12 -8 8 -9 -15 -6 -16 3 -42 -1 -57 -9 -16 -8 -28 -12 -28 -9 0 3 -9 1 -19
-4 -10 -6 -39 -12 -63 -15 -23 -2 -63 -9 -88 -16 -25 -7 -54 -14 -65 -15 -11
-2 -36 -6 -55 -10 -26 -5 -31 -4 -20 4 13 9 13 11 0 11 -19 0 -43 37 -34 52 4
7 3 8 -4 4 -7 -4 -12 -3 -12 1 0 5 -15 35 -34 66 -19 31 -32 57 -30 57 3 0 -6
15 -19 33 -51 69 -52 85 -10 168 20 41 38 81 40 89 1 8 9 44 18 80 29 113 6
380 -36 425 -5 5 -9 17 -9 27 0 10 -4 18 -9 18 -5 0 -15 16 -21 35 -6 19 -16
35 -21 35 -5 0 -9 5 -9 12 0 6 -8 20 -17 31 -13 15 -14 18 -3 12 8 -5 -2 8
-22 28 -21 20 -38 42 -38 48 0 7 -3 9 -6 6 -4 -4 -23 8 -44 26 -20 17 -50 43
-66 56 -16 13 -38 31 -48 40 -11 9 -16 10 -12 4 5 -9 2 -11 -8 -7 -9 3 -13 11
-9 17 3 5 2 8 -3 4 -5 -3 -36 8 -69 24 -39 19 -68 28 -83 24 -15 -4 -21 -2
-17 4 3 7 0 8 -9 5 -9 -3 -24 -3 -33 2 -30 13 -233 10 -266 -4z m1879 -117
c31 -33 39 -67 24 -97 -25 -47 -42 -58 -87 -58 -85 0 -122 84 -67 149 35 41
95 44 130 6z m-1803 -33 c25 -25 31 -41 35 -88 4 -45 2 -55 -8 -49 -9 5 -11 4
-6 -3 17 -27 -42 -77 -104 -88 -47 -9 -126 39 -133 81 -1 11 -6 26 -10 33 -11
16 11 81 38 111 28 33 53 41 108 37 38 -2 55 -10 80 -34z m339 2 c57 -29 77
-63 78 -126 0 -32 -4 -58 -8 -58 -5 0 -15 -11 -22 -25 -7 -14 -15 -23 -18 -20
-2 2 -11 -3 -20 -12 -21 -21 -110 -13 -144 13 -74 55 -60 179 25 222 51 25 69
27 109 6z m1728 -43 c20 -15 25 -27 26 -62 1 -56 -9 -76 -51 -96 -31 -15 -36
-15 -71 4 -23 12 -41 30 -47 47 -10 30 -1 99 12 91 5 -3 12 2 15 10 7 20 45
35 71 28 11 -2 31 -13 45 -22z m-502 -64 c16 -15 22 -32 22 -63 0 -35 -5 -47
-31 -68 -50 -43 -113 -30 -145 29 -17 32 -17 35 1 74 13 31 26 43 49 49 41 11
76 4 104 -21z m-1868 -136 c34 -24 50 -58 50 -106 0 -77 -49 -128 -122 -128
-60 1 -95 17 -118 55 -45 74 -9 176 69 198 38 11 92 2 121 -19z m2505 -44 c17
-14 28 -36 32 -62 13 -103 -134 -143 -174 -47 -18 43 -10 76 24 108 34 31 83
32 118 1z m-1626 3 c23 0 85 -56 76 -69 -3 -6 -1 -11 4 -11 6 0 11 -22 11 -51
0 -45 -4 -55 -38 -90 -35 -35 -44 -39 -88 -39 -61 0 -107 34 -127 96 -13 39
-12 45 11 94 17 35 29 50 39 46 8 -3 11 -1 8 4 -7 11 53 30 73 24 8 -2 21 -4
31 -4z m889 -76 c35 -24 67 -104 41 -104 -5 0 -9 -6 -9 -14 0 -22 -49 -56 -81
-56 -15 0 -41 12 -58 26 -26 21 -31 33 -31 69 0 36 5 48 31 69 35 29 74 33
107 10z m-1346 -151 c34 -39 38 -58 20 -96 -19 -39 -51 -53 -101 -42 -57 12
-70 103 -21 142 23 19 84 16 102 -4z m2007 -49 c40 -33 43 -89 8 -130 -32 -37
-96 -39 -132 -4 -42 42 -35 119 13 145 40 21 77 18 111 -11z m-546 -33 c13 -5
34 -25 46 -45 20 -31 21 -39 10 -75 -23 -76 -108 -89 -159 -23 -26 32 -25 73
1 106 32 41 63 52 102 37z m-1932 -18 c42 -21 56 -38 69 -84 14 -49 4 -91 -31
-129 -45 -48 -129 -54 -175 -13 -77 69 -71 162 14 217 44 30 77 32 123 9z
m924 -63 c30 -14 47 -32 59 -58 16 -36 19 -102 5 -102 -4 0 -9 -10 -11 -22 -8
-55 -124 -88 -178 -51 -97 67 -90 183 15 237 40 21 60 20 110 -4z m1308 -21
c48 -39 51 -82 8 -128 -40 -42 -90 -43 -132 -2 -40 41 -40 89 2 130 39 40 74
40 122 0z m-1985 -204 c43 -9 82 -68 82 -125 0 -22 -4 -40 -9 -40 -5 0 -12
-10 -15 -22 -15 -56 -123 -82 -180 -44 -36 23 -66 74 -66 112 0 64 84 141 140
129 8 -2 30 -6 48 -10z m411 -43 c18 -15 33 -30 32 -35 -1 -4 5 -20 14 -36 12
-23 12 -36 3 -63 -12 -38 -76 -101 -95 -94 -7 3 -13 1 -13 -4 0 -6 -10 -10
-22 -10 -19 0 -20 2 -8 11 12 8 10 9 -7 4 -35 -10 -86 25 -103 70 -19 49 -12
101 17 136 54 63 118 71 182 21z m1826 -189 c-3 -27 -13 -70 -21 -97 -8 -27
-14 -69 -14 -92 0 -24 -4 -46 -10 -49 -5 -3 -10 -19 -10 -36 0 -25 -4 -29 -27
-29 -16 -1 -55 -7 -88 -15 -33 -8 -62 -15 -65 -15 -12 0 -9 47 5 95 7 28 17
74 21 103 4 29 10 55 14 57 5 3 6 14 3 25 -3 12 2 29 13 42 11 12 13 18 5 13
-10 -5 -12 -4 -7 3 4 7 19 12 34 13 15 0 47 6 72 13 81 24 83 23 75 -31z
m-475 -68 c0 -8 -4 -15 -9 -15 -5 0 -9 -10 -9 -22 0 -13 -10 -70 -21 -128 -12
-58 -21 -115 -21 -127 0 -29 -24 -41 -104 -52 -36 -5 -70 -12 -76 -16 -14 -9
-24 23 -12 38 6 7 15 49 21 93 7 45 16 96 21 115 6 19 10 46 10 60 0 31 25 44
110 58 81 13 90 12 90 -4z m-460 -82 c0 -5 -5 -26 -11 -48 -5 -22 -14 -62 -19
-90 -17 -98 -37 -185 -43 -191 -7 -8 -73 -25 -120 -31 -56 -8 -67 0 -57 39 8
30 46 217 53 263 2 11 9 19 15 18 7 -2 12 1 12 6 0 6 21 13 48 17 26 3 54 10
62 15 19 10 60 12 60 2z m-482 -133 c-5 -25 -13 -67 -18 -95 -12 -67 -40 -198
-43 -200 -3 -2 -128 -27 -161 -33 -27 -4 -29 -3 -22 24 4 16 18 81 31 144 39
185 30 168 89 180 85 18 131 27 133 26 1 -1 -3 -21 -9 -46z m-418 -49 c0 -5
-5 -22 -10 -36 -6 -15 -11 -44 -12 -65 -1 -21 -6 -47 -12 -58 -11 -20 -13 -19
-61 24 -28 25 -62 48 -77 51 -16 3 -28 11 -27 17 1 16 14 48 19 46 3 -1 13 2
23 6 10 3 35 4 55 1 24 -4 32 -3 23 3 -11 6 -5 10 20 13 19 2 40 5 47 5 6 1
12 -2 12 -7z m505 -458 c-4 -10 -14 -36 -22 -58 -8 -22 -18 -44 -22 -50 -4 -5
-16 -32 -25 -60 -10 -27 -24 -54 -30 -60 -6 -5 -11 -14 -12 -20 -1 -5 -5 -20
-9 -32 -7 -22 -13 -23 -102 -23 -93 0 -94 0 -87 23 9 31 7 30 72 28 68 -2 128
20 137 50 11 35 -3 67 -54 116 -42 41 -49 52 -44 76 l5 27 100 0 c92 0 100 -2
93 -17z m473 -18 c-6 -19 -16 -31 -21 -28 -6 3 -7 2 -4 -4 9 -14 -58 -175 -68
-165 -5 4 -5 2 -2 -4 4 -7 0 -28 -8 -48 l-15 -36 -100 0 -99 0 38 83 c20 45
46 107 56 137 35 101 34 100 140 100 l93 0 -10 -35z m466 -2 c-8 -21 -19 -47
-24 -58 -38 -87 -83 -193 -87 -207 -5 -16 -19 -18 -104 -18 -91 0 -98 1 -90
18 5 9 21 46 36 82 15 36 36 84 46 108 11 23 19 47 19 53 0 5 7 21 16 34 15
24 21 25 110 25 l93 0 -15 -37z m506 33 c0 -16 -45 -116 -52 -116 -5 0 -8 -6
-6 -12 1 -7 -13 -52 -32 -100 l-35 -88 -97 0 c-54 0 -98 2 -98 5 0 2 6 19 14
37 8 18 21 49 29 68 9 19 26 60 40 90 13 30 30 70 37 88 l12 32 94 0 c52 0 94
-2 94 -4z m-617 -563 c-270 -2 -716 -2 -990 0 -274 1 -53 2 492 2 545 0 769
-1 498 -2z m242 -413 l-250 -5 -5 -130 -4 -130 -6 130 -5 130 -715 2 c-393 2
-722 4 -730 7 -8 2 430 3 975 3 545 -1 878 -4 740 -7z"/>
</g>
</svg>
