<?xml version="1.0" standalone="no"?>
<!DOCTYPE svg PUBLIC "-//W3C//DTD SVG 20010904//EN"
 "http://www.w3.org/TR/2001/REC-SVG-20010904/DTD/svg10.dtd">
<svg version="1.0" xmlns="http://www.w3.org/2000/svg"
 width="428.000000pt" height="110.000000pt" viewBox="0 0 428.000000 110.000000"
 preserveAspectRatio="xMidYMid meet">
<metadata>
Created by potrace 1.16, written by Peter Selinger 2001-2019
</metadata>
<g transform="translate(0.000000,110.000000) scale(0.100000,-0.100000)"
fill="#000000" stroke="none">
<path d="M144 1011 c-46 -20 -64 -58 -64 -140 0 -82 19 -129 59 -151 18 -9 21
-20 21 -71 0 -57 -2 -62 -40 -98 l-40 -38 0 -79 c0 -92 18 -131 72 -157 30
-14 86 -16 431 -16 240 0 408 4 424 10 19 7 39 5 75 -7 38 -12 75 -15 151 -12
110 4 170 26 231 83 l29 26 29 -35 c16 -20 43 -43 58 -51 36 -19 156 -19 189
-1 21 11 30 11 60 -1 29 -12 69 -15 200 -11 125 3 174 1 205 -10 43 -14 53
-14 391 8 178 11 158 11 273 4 l92 -6 0 -41 c0 -54 28 -99 74 -121 31 -15 60
-17 182 -14 l146 3 29 33 c24 26 29 41 29 82 0 43 3 50 20 50 16 0 20 -7 20
-37 0 -50 29 -96 74 -117 31 -15 60 -17 182 -14 l146 3 29 33 c24 26 29 41 29
82 0 46 2 50 23 50 13 0 51 14 85 30 64 33 109 86 133 157 18 56 7 199 -19
250 -28 54 -81 107 -135 135 -46 24 -56 25 -387 21 -91 -1 -203 -1 -250 0 -47
1 -145 0 -218 -3 l-134 -4 -36 69 c-58 110 -70 115 -273 115 l-169 0 -30 -27
c-36 -32 -54 -96 -44 -151 6 -32 5 -34 -12 -28 -80 33 -109 38 -197 34 -50 -3
-100 -8 -109 -12 -14 -7 -18 -3 -18 15 0 37 -34 84 -75 103 -29 14 -57 17
-137 14 -98 -3 -100 -3 -129 -36 -18 -20 -29 -43 -29 -61 l0 -29 -222 -4
c-168 -3 -237 0 -278 10 -36 9 -84 12 -137 9 l-83 -5 0 37 c0 48 -29 94 -74
115 -31 15 -62 17 -206 14 -163 -3 -169 -4 -194 -27 l-26 -25 -33 25 c-31 23
-39 24 -202 26 -93 1 -180 -2 -191 -6z m316 -114 c0 -7 -40 -50 -88 -95 -75
-70 -88 -88 -90 -117 -2 -21 2 -35 9 -35 8 0 7 -5 -2 -17 -7 -10 1 -5 19 11
18 17 32 32 32 34 0 3 -9 -3 -20 -13 -11 -10 -20 -16 -20 -13 0 2 12 15 27 29
14 13 23 18 18 10 -6 -10 -4 -13 6 -9 22 9 24 -50 2 -76 -17 -20 -17 -20 1 -6
18 14 18 12 14 -51 -4 -64 -3 -67 24 -82 23 -13 28 -23 28 -57 l0 -40 -103 0
c-67 0 -107 4 -115 12 -7 7 -12 29 -12 50 0 31 4 38 20 38 11 0 29 9 40 20 20
20 21 31 18 171 -2 82 -1 150 2 152 3 1 23 23 45 47 l40 45 -45 -42 c-70 -65
-120 -62 -120 8 l0 39 135 0 c104 0 135 -3 135 -13z m490 -6 c13 -26 13 -58
-1 -67 -19 -11 -30 19 -13 37 23 26 3 31 -25 7 -22 -20 -23 -20 -8 -2 25 30
21 39 -10 18 -24 -15 -26 -15 -14 -1 27 34 -6 16 -44 -23 -21 -22 -44 -40 -50
-40 -5 1 2 11 16 23 14 12 29 31 33 42 4 12 -13 1 -46 -30 -29 -27 -42 -38
-29 -22 14 15 21 27 16 27 -4 0 0 9 10 20 19 21 7 28 -13 8 -7 -7 -12 -8 -12
-4 0 5 -8 2 -17 -5 -16 -13 -17 -12 -4 4 22 28 -3 19 -42 -15 -27 -25 -44 -54
-67 -117 -16 -47 -30 -86 -30 -88 0 -3 18 5 41 19 3 1 13 -3 22 -10 14 -12 14
-17 3 -35 -8 -12 -13 -34 -12 -49 1 -14 -2 -24 -7 -21 -5 3 -6 -5 -2 -17 4
-14 3 -20 -3 -16 -13 8 -23 -19 -15 -41 4 -10 2 -14 -4 -10 -12 8 -26 -20 -17
-34 3 -5 0 -9 -6 -9 -7 0 -9 -7 -6 -16 3 -9 2 -12 -5 -8 -7 4 -9 -3 -7 -17 2
-20 -2 -25 -25 -27 -17 -2 -36 3 -47 13 -9 9 -44 87 -76 175 -32 87 -61 157
-65 155 -4 -3 -6 3 -5 13 0 9 -5 16 -12 14 -20 -4 4 26 66 83 30 28 50 40 44
28 -7 -11 -30 -37 -53 -56 -30 -24 -39 -38 -33 -48 5 -8 9 -20 11 -28 1 -7 7
-19 14 -25 9 -8 10 -7 4 4 -5 8 -4 12 0 7 5 -4 20 3 33 15 l25 23 -14 -25 c-8
-13 -21 -30 -29 -36 -8 -7 -12 -16 -8 -20 4 -4 21 8 37 27 17 19 39 35 51 35
20 1 20 0 4 -17 -10 -11 -14 -19 -10 -19 4 0 1 -10 -5 -22 -10 -20 -7 -19 19
6 l31 29 7 -27 c5 -22 1 -33 -21 -56 -33 -35 -17 -48 19 -15 18 17 41 65 70
147 25 68 47 131 51 141 6 15 23 17 141 17 122 0 134 -2 144 -19z m1968 -71
c24 -47 69 -140 99 -207 46 -101 62 -126 89 -142 30 -18 34 -25 34 -61 l0 -40
-138 0 c-94 0 -142 4 -150 12 -7 7 -12 29 -12 50 0 31 4 38 20 38 21 0 45 34
35 50 -3 6 -52 10 -108 10 -90 0 -105 -2 -119 -20 -18 -20 -16 -23 27 -45 14
-8 21 -23 23 -53 l3 -42 -67 0 c-62 0 -65 1 -53 18 12 14 10 14 -8 -2 -22 -18
-66 -19 -119 -1 -14 4 -27 1 -35 -7 -9 -11 -24 -13 -51 -8 -21 4 -40 4 -43 0
-7 -12 -90 5 -87 18 1 8 -6 11 -20 7 -30 -7 -92 46 -113 97 -29 72 -16 140 38
196 52 54 163 69 244 33 69 -32 120 -131 93 -181 -7 -14 -27 -16 -128 -14
-111 3 -119 2 -117 -15 1 -11 7 -26 14 -35 33 -39 215 -25 255 20 12 12 54 83
94 157 72 135 82 175 40 161 -29 -9 -48 14 -48 58 l0 39 132 -3 133 -3 43 -85z
m-880 28 c7 -7 12 -34 12 -60 l0 -48 -63 0 c-36 0 -68 5 -75 12 -7 7 -12 34
-12 60 l0 48 63 0 c36 0 68 -5 75 -12z m-1294 -143 l-1 -84 28 16 c15 9 25 21
22 25 -3 5 -13 2 -22 -6 -15 -14 -18 -14 -18 -1 0 8 19 31 41 52 22 21 32 28
22 16 -11 -13 -16 -23 -11 -23 4 0 2 -6 -4 -14 -25 -30 9 -25 46 6 l38 32 -40
-42 c-22 -24 -33 -42 -25 -42 8 0 0 -15 -21 -37 l-34 -38 42 39 c23 22 40 42
38 46 -2 4 8 18 23 31 l27 24 -24 -27 c-23 -26 -20 -33 10 -30 3 1 7 -31 8
-70 2 -68 1 -73 -31 -107 -20 -22 -23 -27 -7 -13 20 18 33 21 55 16 44 -10 54
-23 54 -64 l0 -38 -92 -1 c-89 -2 -91 -1 -75 17 9 10 17 22 17 27 0 4 -9 -4
-21 -19 -15 -20 -29 -26 -58 -26 -20 0 -42 5 -49 12 -18 18 -16 88 2 88 8 0
22 7 30 16 13 13 16 42 16 160 0 79 3 144 8 144 4 0 7 -38 6 -85z m503 35 c27
-6 62 -20 78 -31 17 -12 22 -19 13 -16 -12 4 -15 2 -11 -9 3 -8 -1 -22 -8 -32
-7 -9 -1 -6 14 7 15 14 29 22 32 19 3 -3 -13 -22 -35 -42 -22 -20 -40 -39 -40
-43 0 -4 13 5 28 20 27 26 72 44 72 30 0 -4 -10 -17 -22 -30 -12 -13 -23 -30
-24 -39 -2 -14 0 -13 17 1 10 10 16 22 13 26 -3 5 3 9 14 9 30 0 28 -62 -4
-100 -14 -16 -30 -27 -35 -24 -5 3 -8 1 -7 -3 4 -12 -93 -102 -110 -103 -8 0
-10 -5 -6 -12 5 -10 4 -10 -6 -1 -10 9 -17 10 -27 2 -22 -19 -28 19 -7 44 19
22 19 22 -2 4 -29 -24 -41 -21 -18 6 10 12 3 8 -16 -9 -36 -33 -74 -37 -48 -6
12 14 11 14 -9 1 -18 -10 -25 -11 -35 -1 -9 9 -7 17 8 34 l19 23 -26 -23 -25
-22 -22 22 c-47 51 -55 129 -19 198 27 53 60 78 124 96 61 16 71 16 130 4z
m2233 -23 c41 -21 56 -42 102 -139 12 -27 10 -70 -3 -62 -9 5 -10 -1 -5 -20 4
-17 3 -25 -3 -22 -5 3 -12 -1 -15 -10 -3 -8 -2 -12 4 -9 18 11 10 -4 -21 -40
-17 -19 -35 -35 -40 -35 -5 0 5 14 23 31 l33 31 -37 -29 c-21 -15 -38 -32 -38
-36 0 -5 -9 -5 -20 -2 -11 4 -20 2 -20 -4 0 -6 -8 -11 -17 -11 -23 0 -104 29
-120 42 -10 8 -13 0 -13 -35 0 -25 -3 -52 -6 -61 -4 -10 1 -18 12 -23 27 -10
43 -34 44 -65 0 -22 -5 -28 -21 -28 -19 0 -20 2 -8 18 13 16 13 16 -7 -1 -16
-13 -38 -17 -100 -16 -43 1 -85 6 -91 11 -19 15 -17 78 2 78 28 0 35 39 35
193 0 154 0 155 -25 171 -19 12 -25 25 -25 51 l0 35 84 0 c56 0 86 -4 88 -12
3 -8 15 -7 44 5 56 23 113 21 164 -6z m501 0 c36 -19 50 -36 76 -88 32 -62 43
-119 23 -119 -5 0 -7 -6 -4 -14 11 -30 -62 -126 -85 -111 -6 3 -11 1 -11 -5 0
-7 -8 -9 -21 -5 -15 5 -19 4 -15 -4 9 -13 -45 -15 -72 -3 -9 5 -31 16 -49 24
l-31 16 -4 -60 c-2 -47 0 -62 12 -66 37 -14 58 -92 24 -92 -9 0 -12 5 -8 13 6
10 4 10 -7 0 -18 -18 -163 -18 -153 0 5 8 2 8 -9 -2 -14 -11 -20 -11 -32 -1
-20 17 -20 80 0 80 8 0 19 9 25 19 13 25 13 321 0 341 -5 8 -10 11 -10 6 0 -5
-7 -3 -15 4 -8 7 -15 28 -15 46 l0 34 84 0 c63 0 85 -3 89 -14 5 -12 12 -11
44 5 50 26 110 24 164 -4z m-2325 -4 c7 -10 14 -31 14 -47 0 -25 -3 -27 -25
-22 -20 5 -23 3 -18 -11 5 -12 3 -14 -7 -8 -8 5 -1 -13 15 -40 l28 -49 -42
-36 c-23 -20 -38 -39 -35 -43 4 -4 17 1 28 10 21 18 21 18 2 -5 -33 -38 -12
-34 25 5 19 21 26 31 16 24 -27 -21 -34 -3 -9 22 12 12 22 16 22 9 0 -28 18
-8 45 48 27 56 27 61 12 78 -9 10 -17 33 -17 50 l0 32 158 0 c193 0 185 7 181
-153 -2 -89 0 -112 12 -115 28 -9 49 -74 28 -87 -20 -13 -30 7 -15 30 9 13 12
26 7 29 -10 7 -34 -18 -25 -26 3 -3 0 -9 -6 -13 -6 -3 -9 -2 -8 3 2 6 -1 10
-7 10 -5 0 -8 -5 -7 -12 2 -6 0 -8 -4 -3 -4 4 -17 -1 -28 -10 -18 -16 -18 -15
2 11 31 41 17 52 -26 20 -19 -15 -32 -23 -29 -17 10 15 -18 24 -32 10 -6 -6
-11 -9 -11 -6 0 3 10 14 22 25 12 10 18 13 13 5 -5 -10 -4 -12 3 -7 7 4 12 2
12 -4 0 -6 5 -8 11 -4 8 5 6 10 -5 16 -9 5 -14 13 -11 18 13 21 -38 -6 -60
-32 l-25 -30 0 34 c0 25 6 36 23 43 19 9 22 19 25 75 4 88 -1 106 -32 105 -30
-2 -69 -34 -62 -51 3 -7 0 -11 -7 -8 -7 2 -24 -8 -37 -23 -19 -21 -20 -24 -4
-10 19 16 22 16 28 2 4 -11 2 -14 -6 -9 -8 5 -9 2 -5 -10 4 -9 3 -15 -2 -12
-5 3 -12 -1 -15 -10 -3 -8 -2 -12 4 -9 6 3 7 -1 4 -9 -3 -9 -9 -14 -14 -11 -4
2 -12 -6 -17 -18 -17 -36 -64 -88 -75 -81 -5 4 1 17 14 33 51 55 50 64 -2 16
l-53 -50 37 55 38 55 -45 -47 -46 -46 -62 100 -63 101 30 26 c16 15 36 36 43
46 8 11 -5 1 -30 -22 l-44 -41 -32 27 c-25 20 -33 36 -33 59 l0 32 111 0 c95
0 114 -3 125 -17z"/>
<path d="M1112 715 c-9 -5 -23 -10 -31 -11 -8 -2 -31 -19 -50 -40 -20 -20 -30
-34 -23 -30 6 4 12 2 12 -4 0 -6 -7 -13 -15 -16 -16 -6 -21 -24 -7 -24 5 0 39
30 77 68 38 37 63 60 56 50 -15 -20 2 -34 18 -14 6 7 9 15 6 18 -3 2 2 5 10 5
10 0 3 -13 -21 -38 -32 -32 -37 -45 -39 -86 -1 -52 18 -123 38 -135 7 -4 29
-8 49 -8 28 0 42 6 58 27 18 23 21 38 19 98 -2 38 0 75 4 82 5 8 0 9 -15 5
-22 -5 -21 -4 5 23 21 22 25 30 14 36 -17 10 -53 5 -50 -7 3 -16 -28 -43 -48
-41 -17 1 -16 4 7 28 l25 26 -41 -1 c-23 -1 -49 -5 -58 -11z"/>
<path d="M3348 636 c3 -5 -3 -6 -14 -2 -10 4 -15 4 -11 0 9 -9 -13 -35 -24
-28 -5 3 -6 -3 -2 -12 3 -10 2 -15 -3 -12 -16 11 -9 -71 8 -92 53 -62 158 -13
158 74 0 40 -40 79 -82 80 -20 1 -34 -3 -30 -8z"/>
<path d="M3826 623 c-9 -13 -22 -20 -28 -17 -7 4 -8 2 -4 -4 4 -7 3 -12 -2
-12 -5 0 -8 -21 -7 -47 2 -49 18 -68 63 -80 51 -12 112 40 112 97 0 23 -26 79
-38 81 -56 8 -79 4 -96 -18z"/>
</g>
</svg>
